<svg width="18" height="18" viewBox="0 0 18 18" fill="none" xmlns="http://www.w3.org/2000/svg">
<path d="M9 11.25C9.2125 11.25 9.39075 11.178 9.53475 11.034C9.67875 10.89 9.7505 10.712 9.75 10.5C9.75 10.2875 9.678 10.1093 9.534 9.96525C9.39 9.82125 9.212 9.7495 9 9.75C8.7875 9.75 8.60925 9.822 8.46525 9.966C8.32125 10.11 8.2495 10.288 8.25 10.5C8.25 10.7125 8.322 10.8908 8.466 11.0348C8.61 11.1788 8.788 11.2505 9 11.25ZM8.25 8.25H9.75V3.75H8.25V8.25ZM1.5 16.5V3C1.5 2.5875 1.647 2.23425 1.941 1.94025C2.235 1.64625 2.588 1.4995 3 1.5H15C15.4125 1.5 15.7657 1.647 16.0597 1.941C16.3538 2.235 16.5005 2.588 16.5 3V12C16.5 12.4125 16.353 12.7658 16.059 13.0598C15.765 13.3538 15.412 13.5005 15 13.5H4.5L1.5 16.5ZM3.8625 12H15V3H3V12.8438L3.8625 12Z" fill="#343A40"/>
</svg>
