<svg width="18" height="18" viewBox="0 0 18 18" fill="none" xmlns="http://www.w3.org/2000/svg">
<path d="M9.75 13.125C9.75 13.3239 9.67098 13.5147 9.53033 13.6553C9.38968 13.796 9.19891 13.875 9 13.875C8.80109 13.875 8.61032 13.796 8.46967 13.6553C8.32902 13.5147 8.25 13.3239 8.25 13.125C8.25 12.9261 8.32902 12.7353 8.46967 12.5947C8.61032 12.454 8.80109 12.375 9 12.375C9.19891 12.375 9.38968 12.454 9.53033 12.5947C9.67098 12.7353 9.75 12.9261 9.75 13.125ZM9.5625 6.9375C9.5625 6.78832 9.50324 6.64524 9.39775 6.53975C9.29226 6.43426 9.14918 6.375 9 6.375C8.85082 6.375 8.70774 6.43426 8.60225 6.53975C8.49676 6.64524 8.4375 6.78832 8.4375 6.9375V10.3125C8.4375 10.4617 8.49676 10.6048 8.60225 10.7102C8.70774 10.8157 8.85082 10.875 9 10.875C9.14918 10.875 9.29226 10.8157 9.39775 10.7102C9.50324 10.6048 9.5625 10.4617 9.5625 10.3125V6.9375Z" fill="#343A40"/>
<path d="M7.3771 2.43299C8.09935 1.18424 9.90085 1.18424 10.6231 2.43299L17.3484 14.061C18.0706 15.3112 17.1684 16.875 15.7246 16.875H2.2756C0.831101 16.875 -0.0703984 15.3112 0.651852 14.061L7.3771 2.43299ZM9.6496 2.99624C9.58347 2.88262 9.48868 2.78833 9.37471 2.72279C9.26074 2.65726 9.13157 2.62277 9.0001 2.62277C8.86863 2.62277 8.73946 2.65726 8.62549 2.72279C8.51152 2.78833 8.41673 2.88262 8.3506 2.99624L1.6261 14.6242C1.56057 14.7383 1.52615 14.8677 1.52628 14.9992C1.52641 15.1308 1.56109 15.2601 1.62685 15.374C1.69261 15.488 1.78714 15.5827 1.90099 15.6487C2.01484 15.7147 2.14402 15.7496 2.2756 15.75H15.7246C15.8561 15.7495 15.9851 15.7146 16.0989 15.6487C16.2126 15.5827 16.3071 15.4881 16.3728 15.3742C16.4385 15.2604 16.4733 15.1313 16.4735 14.9998C16.4737 14.8683 16.4394 14.7391 16.3741 14.625L9.6496 2.99624Z" fill="#343A40"/>
</svg>
