<svg width="147" height="27" viewBox="0 0 147 27" fill="none" xmlns="http://www.w3.org/2000/svg">
<path d="M38.1035 21H27.4785V19.0371L34.3242 9.22266H27.6641V6.72266H37.918V8.67578L31.082 18.5H38.1035V21ZM50.0664 15.5215C50.0664 16.4329 49.9427 17.2402 49.6953 17.9434C49.4544 18.6465 49.0996 19.2422 48.6309 19.7305C48.1686 20.2122 47.6087 20.5768 46.9512 20.8242C46.3001 21.0716 45.5645 21.1953 44.7441 21.1953C43.9759 21.1953 43.2695 21.0716 42.625 20.8242C41.987 20.5768 41.4303 20.2122 40.9551 19.7305C40.4863 19.2422 40.1217 18.6465 39.8613 17.9434C39.6074 17.2402 39.4805 16.4329 39.4805 15.5215C39.4805 14.3105 39.6953 13.2852 40.125 12.4453C40.5547 11.6055 41.1667 10.9674 41.9609 10.5312C42.7552 10.0951 43.7025 9.87695 44.8027 9.87695C45.8249 9.87695 46.7298 10.0951 47.5176 10.5312C48.3118 10.9674 48.9336 11.6055 49.3828 12.4453C49.8385 13.2852 50.0664 14.3105 50.0664 15.5215ZM42.5176 15.5215C42.5176 16.2376 42.5957 16.8398 42.752 17.3281C42.9082 17.8164 43.1523 18.1842 43.4844 18.4316C43.8164 18.679 44.2493 18.8027 44.7832 18.8027C45.3105 18.8027 45.737 18.679 46.0625 18.4316C46.3945 18.1842 46.6354 17.8164 46.7852 17.3281C46.9414 16.8398 47.0195 16.2376 47.0195 15.5215C47.0195 14.7988 46.9414 14.1999 46.7852 13.7246C46.6354 13.2428 46.3945 12.8815 46.0625 12.6406C45.7305 12.3997 45.2975 12.2793 44.7637 12.2793C43.9759 12.2793 43.403 12.5495 43.0449 13.0898C42.6934 13.6302 42.5176 14.4408 42.5176 15.5215ZM55.5059 5.80469V8.90039C55.5059 9.44076 55.4863 9.95508 55.4473 10.4434C55.4147 10.9316 55.3887 11.2767 55.3691 11.4785H55.5254C55.7598 11.1009 56.0365 10.7949 56.3555 10.5605C56.681 10.3262 57.0391 10.1536 57.4297 10.043C57.8203 9.93229 58.2402 9.87695 58.6895 9.87695C59.4772 9.87695 60.1641 10.0169 60.75 10.2969C61.3359 10.5703 61.7917 11.0033 62.1172 11.5957C62.4427 12.1816 62.6055 12.9434 62.6055 13.8809V21H59.627V14.623C59.627 13.8418 59.4837 13.2526 59.1973 12.8555C58.9108 12.4583 58.4681 12.2598 57.8691 12.2598C57.2702 12.2598 56.7982 12.3997 56.4531 12.6797C56.1081 12.9531 55.8639 13.36 55.7207 13.9004C55.5775 14.4342 55.5059 15.0885 55.5059 15.8633V21H52.5273V5.80469H55.5059ZM75.5938 15.5215C75.5938 16.4329 75.4701 17.2402 75.2227 17.9434C74.9818 18.6465 74.627 19.2422 74.1582 19.7305C73.696 20.2122 73.1361 20.5768 72.4785 20.8242C71.8275 21.0716 71.0918 21.1953 70.2715 21.1953C69.5033 21.1953 68.7969 21.0716 68.1523 20.8242C67.5143 20.5768 66.9577 20.2122 66.4824 19.7305C66.0137 19.2422 65.6491 18.6465 65.3887 17.9434C65.1348 17.2402 65.0078 16.4329 65.0078 15.5215C65.0078 14.3105 65.2227 13.2852 65.6523 12.4453C66.082 11.6055 66.694 10.9674 67.4883 10.5312C68.2826 10.0951 69.2298 9.87695 70.3301 9.87695C71.3522 9.87695 72.2572 10.0951 73.0449 10.5312C73.8392 10.9674 74.4609 11.6055 74.9102 12.4453C75.3659 13.2852 75.5938 14.3105 75.5938 15.5215ZM68.0449 15.5215C68.0449 16.2376 68.123 16.8398 68.2793 17.3281C68.4355 17.8164 68.6797 18.1842 69.0117 18.4316C69.3438 18.679 69.7767 18.8027 70.3105 18.8027C70.8379 18.8027 71.2643 18.679 71.5898 18.4316C71.9219 18.1842 72.1628 17.8164 72.3125 17.3281C72.4688 16.8398 72.5469 16.2376 72.5469 15.5215C72.5469 14.7988 72.4688 14.1999 72.3125 13.7246C72.1628 13.2428 71.9219 12.8815 71.5898 12.6406C71.2578 12.3997 70.8249 12.2793 70.291 12.2793C69.5033 12.2793 68.9303 12.5495 68.5723 13.0898C68.2207 13.6302 68.0449 14.4408 68.0449 15.5215ZM88.9922 21H85.9648V9.24219H82.0879V6.72266H92.8691V9.24219H88.9922V21ZM100.926 9.87695C101.076 9.87695 101.248 9.88672 101.443 9.90625C101.645 9.91927 101.808 9.9388 101.932 9.96484L101.707 12.7578C101.609 12.7253 101.469 12.7025 101.287 12.6895C101.111 12.6699 100.958 12.6602 100.828 12.6602C100.444 12.6602 100.07 12.709 99.7051 12.8066C99.347 12.9043 99.0247 13.0638 98.7383 13.2852C98.4518 13.5 98.224 13.7865 98.0547 14.1445C97.8919 14.4961 97.8105 14.929 97.8105 15.4434V21H94.832V10.082H97.0879L97.5273 11.918H97.6738C97.8887 11.5469 98.1556 11.2083 98.4746 10.9023C98.8001 10.5898 99.168 10.3424 99.5781 10.1602C99.9948 9.97135 100.444 9.87695 100.926 9.87695ZM108.387 9.85742C109.852 9.85742 110.975 10.1764 111.756 10.8145C112.537 11.4525 112.928 12.4225 112.928 13.7246V21H110.848L110.271 19.5156H110.193C109.881 19.9062 109.562 20.2253 109.236 20.4727C108.911 20.7201 108.536 20.9023 108.113 21.0195C107.69 21.1367 107.176 21.1953 106.57 21.1953C105.926 21.1953 105.346 21.0716 104.832 20.8242C104.324 20.5768 103.924 20.1992 103.631 19.6914C103.338 19.1771 103.191 18.526 103.191 17.7383C103.191 16.5794 103.598 15.7266 104.412 15.1797C105.226 14.6263 106.447 14.3203 108.074 14.2617L109.969 14.2031V13.7246C109.969 13.1517 109.819 12.7318 109.52 12.4648C109.22 12.1979 108.803 12.0645 108.27 12.0645C107.742 12.0645 107.225 12.1393 106.717 12.2891C106.209 12.4388 105.701 12.6276 105.193 12.8555L104.207 10.8438C104.786 10.5378 105.434 10.2969 106.15 10.1211C106.873 9.94531 107.618 9.85742 108.387 9.85742ZM109.969 15.9414L108.816 15.9805C107.853 16.0065 107.182 16.179 106.805 16.498C106.434 16.8171 106.248 17.237 106.248 17.7578C106.248 18.2135 106.382 18.5391 106.648 18.7344C106.915 18.9232 107.264 19.0176 107.693 19.0176C108.331 19.0176 108.868 18.8288 109.305 18.4512C109.747 18.0736 109.969 17.5365 109.969 16.8398V15.9414ZM122.039 12.3184H119.461V21H116.482V12.3184H114.842V10.8828L116.482 10.082V9.28125C116.482 8.35026 116.639 7.6276 116.951 7.11328C117.27 6.59245 117.716 6.22786 118.289 6.01953C118.868 5.80469 119.552 5.69727 120.34 5.69727C120.919 5.69727 121.447 5.74609 121.922 5.84375C122.397 5.9349 122.785 6.03906 123.084 6.15625L122.322 8.34375C122.094 8.27214 121.847 8.20703 121.58 8.14844C121.313 8.08984 121.007 8.06055 120.662 8.06055C120.245 8.06055 119.939 8.1875 119.744 8.44141C119.555 8.6888 119.461 9.00781 119.461 9.39844V10.082H122.039V12.3184ZM129.783 12.3184H127.205V21H124.227V12.3184H122.586V10.8828L124.227 10.082V9.28125C124.227 8.35026 124.383 7.6276 124.695 7.11328C125.014 6.59245 125.46 6.22786 126.033 6.01953C126.613 5.80469 127.296 5.69727 128.084 5.69727C128.663 5.69727 129.191 5.74609 129.666 5.84375C130.141 5.9349 130.529 6.03906 130.828 6.15625L130.066 8.34375C129.839 8.27214 129.591 8.20703 129.324 8.14844C129.057 8.08984 128.751 8.06055 128.406 8.06055C127.99 8.06055 127.684 8.1875 127.488 8.44141C127.299 8.6888 127.205 9.00781 127.205 9.39844V10.082H129.783V12.3184ZM134.461 10.082V21H131.482V10.082H134.461ZM132.977 5.80469C133.419 5.80469 133.8 5.90885 134.119 6.11719C134.438 6.31901 134.598 6.69987 134.598 7.25977C134.598 7.81315 134.438 8.19727 134.119 8.41211C133.8 8.62044 133.419 8.72461 132.977 8.72461C132.527 8.72461 132.143 8.62044 131.824 8.41211C131.512 8.19727 131.355 7.81315 131.355 7.25977C131.355 6.69987 131.512 6.31901 131.824 6.11719C132.143 5.90885 132.527 5.80469 132.977 5.80469ZM142.02 21.1953C140.939 21.1953 140.018 21 139.256 20.6094C138.494 20.2122 137.915 19.6003 137.518 18.7734C137.12 17.9466 136.922 16.8887 136.922 15.5996C136.922 14.265 137.146 13.1777 137.596 12.3379C138.051 11.4915 138.68 10.8698 139.48 10.4727C140.288 10.0755 141.222 9.87695 142.283 9.87695C143.038 9.87695 143.689 9.95182 144.236 10.1016C144.79 10.2448 145.271 10.4173 145.682 10.6191L144.803 12.9238C144.334 12.735 143.898 12.582 143.494 12.4648C143.09 12.3411 142.687 12.2793 142.283 12.2793C141.762 12.2793 141.329 12.403 140.984 12.6504C140.639 12.8913 140.382 13.2559 140.213 13.7441C140.044 14.2324 139.959 14.8444 139.959 15.5801C139.959 16.3027 140.05 16.9017 140.232 17.377C140.415 17.8522 140.678 18.207 141.023 18.4414C141.368 18.6693 141.788 18.7832 142.283 18.7832C142.902 18.7832 143.452 18.7018 143.934 18.5391C144.415 18.3698 144.884 18.1354 145.34 17.8359V20.3848C144.884 20.6712 144.406 20.8763 143.904 21C143.41 21.1302 142.781 21.1953 142.02 21.1953Z" fill="black"/>
<path d="M12 19C12.4333 19 12.7917 18.8583 13.075 18.575C13.3583 18.2917 13.5 17.9333 13.5 17.5C13.5 17.0667 13.3583 16.7083 13.075 16.425C12.7917 16.1417 12.4333 16 12 16C11.5667 16 11.2083 16.1417 10.925 16.425C10.6417 16.7083 10.5 17.0667 10.5 17.5C10.5 17.9333 10.6417 18.2917 10.925 18.575C11.2083 18.8583 11.5667 19 12 19ZM12 14.5C12.4333 14.5 12.7917 14.3583 13.075 14.075C13.3583 13.7917 13.5 13.4333 13.5 13C13.5 12.5667 13.3583 12.2083 13.075 11.925C12.7917 11.6417 12.4333 11.5 12 11.5C11.5667 11.5 11.2083 11.6417 10.925 11.925C10.6417 12.2083 10.5 12.5667 10.5 13C10.5 13.4333 10.6417 13.7917 10.925 14.075C11.2083 14.3583 11.5667 14.5 12 14.5ZM12 10C12.4333 10 12.7917 9.85834 13.075 9.575C13.3583 9.29167 13.5 8.93334 13.5 8.5C13.5 8.06667 13.3583 7.70834 13.075 7.425C12.7917 7.14167 12.4333 7 12 7C11.5667 7 11.2083 7.14167 10.925 7.425C10.6417 7.70834 10.5 8.06667 10.5 8.5C10.5 8.93334 10.6417 9.29167 10.925 9.575C11.2083 9.85834 11.5667 10 12 10ZM7 16V14.85C6.31666 14.6667 5.71666 14.3293 5.2 13.838C4.68333 13.3467 4.33333 12.759 4.15 12.075C4.11666 11.7917 4.19166 11.5417 4.375 11.325C4.55833 11.1083 4.79166 11 5.075 11H7V9.85C6.31666 9.66667 5.71666 9.32934 5.2 8.838C4.68333 8.34667 4.33333 7.759 4.15 7.075C4.11666 6.79167 4.19166 6.54167 4.375 6.325C4.55833 6.10833 4.79166 6 5.075 6H7C7 5.45 7.196 4.979 7.588 4.587C7.98 4.195 8.45066 3.99934 9 4H15C15.55 4 16.021 4.196 16.413 4.588C16.805 4.98 17.0007 5.45067 17 6H18.925C19.2083 6 19.4417 6.10833 19.625 6.325C19.8083 6.54167 19.8833 6.79167 19.85 7.075C19.6667 7.75833 19.3167 8.346 18.8 8.838C18.2833 9.33 17.6833 9.66734 17 9.85V11H18.925C19.2083 11 19.4417 11.1083 19.625 11.325C19.8083 11.5417 19.8833 11.7917 19.85 12.075C19.6667 12.7583 19.3167 13.346 18.8 13.838C18.2833 14.33 17.6833 14.6673 17 14.85V16H18.925C19.2083 16 19.4417 16.1083 19.625 16.325C19.8083 16.5417 19.8833 16.7917 19.85 17.075C19.6667 17.7583 19.3167 18.346 18.8 18.838C18.2833 19.33 17.6833 19.6673 17 19.85V20C17 20.55 16.804 21.021 16.412 21.413C16.02 21.805 15.5493 22.0007 15 22H9C8.45 22 7.979 21.804 7.587 21.412C7.195 21.02 6.99933 20.5493 7 20V19.85C6.31666 19.6667 5.71666 19.3293 5.2 18.838C4.68333 18.3467 4.33333 17.759 4.15 17.075C4.11666 16.7917 4.19166 16.5417 4.375 16.325C4.55833 16.1083 4.79166 16 5.075 16H7Z" fill="black"/>
</svg>
