<svg width="18" height="18" viewBox="0 0 18 18" fill="none" xmlns="http://www.w3.org/2000/svg">
<g clip-path="url(#clip0_8_105)">
<path d="M17.0965 8.17665L9.8234 0.903529C9.71528 0.7954 9.58692 0.709627 9.44565 0.651108C9.30437 0.592589 9.15296 0.562469 9.00004 0.562469C8.84713 0.562469 8.69571 0.592589 8.55444 0.651108C8.41317 0.709627 8.28481 0.7954 8.17668 0.903529L0.903559 8.17665C0.795431 8.28478 0.709658 8.41314 0.651139 8.55441C0.592619 8.69568 0.5625 8.8471 0.5625 9.00001C0.5625 9.15293 0.592619 9.30434 0.651139 9.44562C0.709658 9.58689 0.795431 9.71525 0.903559 9.82337L8.17668 17.0965C8.28481 17.2046 8.41317 17.2904 8.55444 17.3489C8.69571 17.4074 8.84713 17.4376 9.00004 17.4376C9.15296 17.4376 9.30437 17.4074 9.44565 17.3489C9.58692 17.2904 9.71528 17.2046 9.8234 17.0965L17.0965 9.82337C17.2047 9.71525 17.2904 9.58689 17.3489 9.44562C17.4075 9.30434 17.4376 9.15293 17.4376 9.00001C17.4376 8.8471 17.4075 8.69568 17.3489 8.55441C17.2904 8.41314 17.2047 8.28478 17.0965 8.17665ZM16.3013 9.02744L9.02817 16.3013C9.02059 16.3085 9.01052 16.3125 9.00004 16.3125C8.98957 16.3125 8.9795 16.3085 8.97192 16.3013L1.69879 9.02744C1.69166 9.02009 1.68768 9.01025 1.68768 9.00001C1.68768 8.98977 1.69166 8.97994 1.69879 8.97259L8.97192 1.69876C8.9795 1.69154 8.98957 1.68751 9.00004 1.68751C9.01052 1.68751 9.02059 1.69154 9.02817 1.69876L16.3013 8.97259C16.3084 8.97994 16.3124 8.98977 16.3124 9.00001C16.3124 9.01025 16.3084 9.02009 16.3013 9.02744ZM12.2105 8.04306C12.2628 8.0953 12.3043 8.15734 12.3326 8.22563C12.3609 8.29391 12.3755 8.36711 12.3755 8.44103C12.3755 8.51495 12.3609 8.58815 12.3326 8.65643C12.3043 8.72472 12.2628 8.78676 12.2105 8.839L10.523 10.5265C10.4175 10.632 10.2743 10.6913 10.125 10.6913C9.97578 10.6913 9.83262 10.632 9.72707 10.5265C9.62153 10.421 9.56223 10.2778 9.56223 10.1285C9.56223 9.97926 9.62153 9.83611 9.72707 9.73056L10.4548 9.00001H7.87504C7.57668 9.00001 7.29053 9.11854 7.07955 9.32952C6.86857 9.5405 6.75004 9.82664 6.75004 10.125V10.6875C6.75004 10.8367 6.69078 10.9798 6.58529 11.0853C6.4798 11.1908 6.33673 11.25 6.18754 11.25C6.03836 11.25 5.89529 11.1908 5.7898 11.0853C5.68431 10.9798 5.62504 10.8367 5.62504 10.6875V10.125C5.62504 9.52828 5.8621 8.95598 6.28405 8.53402C6.70601 8.11207 7.27831 7.87501 7.87504 7.87501H10.4548L9.72707 7.14798C9.62153 7.04243 9.56223 6.89928 9.56223 6.75001C9.56223 6.60075 9.62153 6.45759 9.72707 6.35204C9.83262 6.2465 9.97578 6.1872 10.125 6.1872C10.2743 6.1872 10.4175 6.2465 10.523 6.35204L12.2105 8.04306Z" fill="#343A40"/>
</g>
<defs>
<clipPath id="clip0_8_105">
<rect width="18" height="18" fill="white"/>
</clipPath>
</defs>
</svg>
